<svg xmlns="http://www.w3.org/2000/svg" viewBox="0 0 1080 1350" data-id="v2-navidad-015" data-category="navidad" data-text-contrast="light" data-text-zone="top-center" data-primary-motif="candle-star">
<metadata>{"id":"v2-navidad-015","category":"navidad","tags":["advent","candle-star","christmas","corner_botanical","nativity","royal"],"style":"corner_botanical","textZone":"top-center","textContrast":"light","brightness":"dark","orientation":"portrait","primaryMotif":"candle-star","collection":"Verbo SVG V2","visualRule":"prominent motif; editorial safe zone preserved"}</metadata>
<defs>
 <linearGradient id="bg" x1="1" y1="0" x2="0" y2="1"><stop offset="0" stop-color="#1c2452"/><stop offset="1" stop-color="#5e5bb0"/></linearGradient>
 <radialGradient id="glow"><stop offset="0" stop-color="#ffffff" stop-opacity=".55"/><stop offset="1" stop-color="#ffffff" stop-opacity="0"/></radialGradient>
</defs>
<rect width="1080" height="1350" fill="url(#bg)"/>
<circle cx="335" cy="255" r="345" fill="url(#glow)" opacity=".55"/>
<rect x="38" y="38" width="1004" height="1274" rx="57" fill="none" stroke="#fffdf5" stroke-width="5" opacity=".68"/>
<rect x="58" y="58" width="964" height="1234" rx="49" fill="none" stroke="#f2d58c" stroke-width="2" opacity=".38"/>
<path d="M70 330 C160 190 260 130 390 110 M1010 330 C920 190 820 130 690 110" fill="none" stroke="#fffdf5" stroke-width="7" opacity=".28"/>
<path d="M540 900 l30 78 83 5 -65 52 20 82 -68 -46 -68 46 20 -82 -65 -52 83 -5z" fill="#fffdf5"/><g fill="#f2d58c"><circle cx="260" cy="1110" r="13"/><circle cx="800" cy="1050" r="10"/><circle cx="720" cy="1220" r="8"/><circle cx="350" cy="1240" r="9"/></g>
</svg>