<svg xmlns="http://www.w3.org/2000/svg" viewBox="0 0 1080 1350" data-id="va20c-09" data-category="iglesia_comunidad" data-text-contrast="dark" data-text-zone="upper-left"><metadata>{"id": "va20c-09", "title": "Iglesia entre montañas nevadas", "category": "iglesia_comunidad", "tags": ["church", "snow", "mountains", "community"], "style": "detailed-vector-landscape", "textZone": "upper-left", "textContrast": "dark", "orientation": "portrait", "primaryMotif": "snow-church", "collection": "Verbo Vector Landscapes 20 C", "containsPeople": false, "visualRule": "detailed pure-vector landscape; no people; unique composition; editorial safe zone"}</metadata><defs><linearGradient id="sky" x1="0" y1="0" x2="0" y2="1"><stop offset="0" stop-color="#9dbbd0"/><stop offset="1" stop-color="#dfe8ed"/></linearGradient></defs><rect width="1080" height="1350" fill="url(#sky)"/><rect x="34" y="34" width="1012" height="1282" rx="34" fill="none" stroke="#fff" stroke-width="4" opacity="0.8"/><path d="M0 850 L200 700 L360 820 L550 610 L760 840 L920 690 L1080 830 V1150 H0Z" fill="#71818b"/><path d="M0 900 L200 700 L240 770 L360 820 L550 610 L590 690 L760 840 L920 690 L960 760 L1080 830 V970 H0Z" fill="#f4f7f8" opacity=".8"/><path d="M0 1100 C250 1020 430 1060 600 1110 C780 1160 920 1130 1080 1080 V1350 H0Z" fill="#eef4f6"/><g transform="translate(570 900)"><path d="M-130 310 V130 L0 25 L130 130 V310Z" fill="#e8e3d8" stroke="#6f6257" stroke-width="8"/><path d="M0 25 V-55 M-35 -20 H35" stroke="#6f6257" stroke-width="11"/><rect x="-25" y="210" width="50" height="100" fill="#765d49"/></g><g transform="translate(210 1000) scale(0.85)"><rect x="-8" y="70" width="16" height="90" fill="#594234"/><path d="M0 -55 L-60 70 H60Z M0 -5 L-75 105 H75Z" fill="#3c5f50"/></g><g transform="translate(900 1020) scale(0.8)"><rect x="-8" y="70" width="16" height="90" fill="#594234"/><path d="M0 -55 L-60 70 H60Z M0 -5 L-75 105 H75Z" fill="#3c5f50"/></g></svg>