<svg xmlns="http://www.w3.org/2000/svg" viewBox="0 0 1080 1350" data-id="va20-17" data-category="navidad" data-text-contrast="light" data-text-zone="upper-left">
<metadata>{"id": "va20-17", "category": "navidad", "tags": ["christmas", "bethlehem", "star", "nativity", "advent"], "style": "illustrated-vector", "textZone": "upper-left", "textContrast": "light", "brightness": "dark", "orientation": "portrait", "primaryMotif": "bethlehem-star", "collection": "Verbo Vector Art 20", "title": "Belén bajo la estrella", "visualRule": "full vector illustration; editorial safe zone preserved"}</metadata>
<defs><linearGradient id="sky" x1="0" y1="0" x2="0" y2="1"><stop offset="0" stop-color="#0e1c38"/><stop offset="1" stop-color="#3d3158"/></linearGradient></defs>
<rect width="1080" height="1350" fill="url(#sky)"/><rect x="36" y="36" width="1008" height="1278" rx="32" fill="none" stroke="#f4e5b9" stroke-width="4" opacity="0.62"/>
<circle cx="90" cy="110" r="2" fill="#ffffff"/><circle cx="183" cy="165" r="3" fill="#ffffff"/><circle cx="276" cy="220" r="4" fill="#ffffff"/><circle cx="369" cy="275" r="2" fill="#ffffff"/><circle cx="462" cy="330" r="3" fill="#ffffff"/><circle cx="555" cy="110" r="4" fill="#ffffff"/><circle cx="648" cy="165" r="2" fill="#ffffff"/><circle cx="741" cy="220" r="3" fill="#ffffff"/><circle cx="834" cy="275" r="4" fill="#ffffff"/><circle cx="927" cy="330" r="2" fill="#ffffff"/><path d="M540 580 l28 72 78 5 -61 48 18 76 -63 -43 -63 43 18 -76 -61 -48 78 -5z" fill="#ffe9a8"/>
<path d="M0 1150 L220 1030 L360 1100 L520 980 L690 1120 L830 1035 L1080 1160 V1350 H0Z" fill="#2a2b3f"/>
<g transform="translate(590 1085)"><path d="M-120 170 V80 L0 0 L120 80 V170 Z" fill="#a67c52"/><path d="M-45 170 V105 H45 V170" fill="#5c4632"/></g>

</svg>