<svg xmlns="http://www.w3.org/2000/svg" viewBox="0 0 1080 1350" data-id="va20-13" data-category="paz_consuelo" data-text-contrast="light" data-text-zone="top-center">
<metadata>{"id": "va20-13", "category": "paz_consuelo", "tags": ["forest", "light", "peace", "comfort", "prayer"], "style": "illustrated-vector", "textZone": "top-center", "textContrast": "light", "brightness": "dark", "orientation": "portrait", "primaryMotif": "forest-rays", "collection": "Verbo Vector Art 20", "title": "Bosque atravesado por luz", "visualRule": "full vector illustration; editorial safe zone preserved"}</metadata>
<defs><linearGradient id="bg" x1="0" y1="0" x2="0" y2="1"><stop offset="0" stop-color="#173d34"/><stop offset="1" stop-color="#6d8c6c"/></linearGradient></defs>
<rect width="1080" height="1350" fill="url(#bg)"/><rect x="36" y="36" width="1008" height="1278" rx="32" fill="none" stroke="#edf4df" stroke-width="4" opacity="0.55"/>
<path d="M540 0 L80 1040" stroke="#fff6c7" stroke-width="22" opacity=".07"/><path d="M540 0 L250 1040" stroke="#fff6c7" stroke-width="22" opacity=".07"/><path d="M540 0 L420 1040" stroke="#fff6c7" stroke-width="22" opacity=".07"/><path d="M540 0 L590 1040" stroke="#fff6c7" stroke-width="22" opacity=".07"/><path d="M540 0 L760 1040" stroke="#fff6c7" stroke-width="22" opacity=".07"/><path d="M540 0 L930 1040" stroke="#fff6c7" stroke-width="22" opacity=".07"/><g transform="translate(110 890) scale(1.4)">
<rect x="-10" y="70" width="20" height="85" rx="8" fill="#4e392c"/>
<circle cx="0" cy="35" r="50" fill="#234d3a"/><circle cx="-35" cy="55" r="34" fill="#234d3a"/><circle cx="35" cy="58" r="32" fill="#234d3a"/>
</g><g transform="translate(310 960) scale(1.2)">
<rect x="-10" y="70" width="20" height="85" rx="8" fill="#4e392c"/>
<circle cx="0" cy="35" r="50" fill="#2f5d45"/><circle cx="-35" cy="55" r="34" fill="#2f5d45"/><circle cx="35" cy="58" r="32" fill="#2f5d45"/>
</g><g transform="translate(810 930) scale(1.35)">
<rect x="-10" y="70" width="20" height="85" rx="8" fill="#4e392c"/>
<circle cx="0" cy="35" r="50" fill="#244f3b"/><circle cx="-35" cy="55" r="34" fill="#244f3b"/><circle cx="35" cy="58" r="32" fill="#244f3b"/>
</g><g transform="translate(980 1000) scale(1.0)">
<rect x="-10" y="70" width="20" height="85" rx="8" fill="#4e392c"/>
<circle cx="0" cy="35" r="50" fill="#315e46"/><circle cx="-35" cy="55" r="34" fill="#315e46"/><circle cx="35" cy="58" r="32" fill="#315e46"/>
</g>
<path d="M0 1200 C220 1130 420 1140 580 1190 C760 1245 910 1210 1080 1150 V1350 H0Z" fill="#274735"/>

</svg>