<svg xmlns="http://www.w3.org/2000/svg" viewBox="0 0 1080 1350" data-id="va20-10" data-category="cristo_evangelio" data-text-contrast="light" data-text-zone="upper-left">
<metadata>{"id": "va20-10", "category": "cristo_evangelio", "tags": ["cross", "clouds", "christ", "gospel", "salvation"], "style": "illustrated-vector", "textZone": "upper-left", "textContrast": "light", "brightness": "dark", "orientation": "portrait", "primaryMotif": "cross-clouds", "collection": "Verbo Vector Art 20", "title": "Cruz entre nubes", "visualRule": "full vector illustration; editorial safe zone preserved"}</metadata>
<defs><linearGradient id="sky" x1="0" y1="0" x2="0" y2="1"><stop offset="0" stop-color="#7186b5"/><stop offset="1" stop-color="#f1c79c"/></linearGradient>
<radialGradient id="halo"><stop offset="0" stop-color="#fff4c2" stop-opacity=".95"/><stop offset="1" stop-color="#fff4c2" stop-opacity="0"/></radialGradient></defs>
<rect width="1080" height="1350" fill="url(#sky)"/><rect x="36" y="36" width="1008" height="1278" rx="32" fill="none" stroke="#ffffff" stroke-width="4" opacity="0.68"/>
<circle cx="540" cy="930" r="280" fill="url(#halo)"/>
<g transform="translate(80 900) scale(1.25)" fill="#ffffff" opacity="0.55">
<circle cx="0" cy="0" r="42"/><circle cx="52" cy="-12" r="58"/><circle cx="110" cy="3" r="44"/><rect x="-10" y="0" width="135" height="45" rx="22"/>
</g><g transform="translate(700 960) scale(1.1)" fill="#ffffff" opacity="0.5">
<circle cx="0" cy="0" r="42"/><circle cx="52" cy="-12" r="58"/><circle cx="110" cy="3" r="44"/><rect x="-10" y="0" width="135" height="45" rx="22"/>
</g>
<path d="M0 1220 C240 1120 400 1140 560 1200 C720 1260 900 1210 1080 1130 V1350 H0Z" fill="#3f544b"/>
<g fill="#fffdf3"><rect x="505" y="820" width="70" height="360" rx="6"/><rect x="385" y="930" width="310" height="64" rx="6"/></g>

</svg>