<svg width="440" height="640" viewBox="0 0 440 640" xmlns="http://www.w3.org/2000/svg">
  <defs>
    <linearGradient id="coverGrad" x1="0%" y1="0%" x2="100%" y2="100%">
      <stop offset="0%" stop-color="#1E2A38"/>
      <stop offset="55%" stop-color="#161F2A"/>
      <stop offset="100%" stop-color="#0E141C"/>
    </linearGradient>
    <radialGradient id="vignette" cx="52%" cy="40%" r="70%">
      <stop offset="0%" stop-color="#33475E" stop-opacity="0.5"/>
      <stop offset="100%" stop-color="#000000" stop-opacity="0"/>
    </radialGradient>
    <linearGradient id="spineGrad" x1="0%" y1="0%" x2="100%" y2="0%">
      <stop offset="0%" stop-color="#4A3418"/>
      <stop offset="50%" stop-color="#3A2810"/>
      <stop offset="100%" stop-color="#2E2110"/>
    </linearGradient>
    <linearGradient id="goldLine" x1="0%" y1="0%" x2="100%" y2="100%">
      <stop offset="0%" stop-color="#E4C355"/>
      <stop offset="50%" stop-color="#C9A227"/>
      <stop offset="100%" stop-color="#9C7C1C"/>
    </linearGradient>
    <filter id="softGrain">
      <feTurbulence type="fractalNoise" baseFrequency="0.9" numOctaves="2" result="noise"/>
      <feColorMatrix in="noise" type="matrix"
        values="0 0 0 0 0  0 0 0 0 0  0 0 0 0 0  0 0 0 0.03 0"/>
    </filter>
  </defs>

  <!-- spine -->
  <rect x="0" y="0" width="26" height="640" fill="url(#spineGrad)"/>
  <rect x="21" y="0" width="5" height="640" fill="#3A1414" opacity="0.5"/>
  <rect x="0" y="96" width="26" height="4" fill="#C9A227" opacity="0.35"/>
  <rect x="0" y="320" width="26" height="4" fill="#C9A227" opacity="0.35"/>
  <rect x="0" y="544" width="26" height="4" fill="#C9A227" opacity="0.35"/>

  <!-- front cover panel -->
  <rect x="26" y="0" width="414" height="640" fill="url(#coverGrad)"/>
  <rect x="26" y="0" width="414" height="640" fill="url(#vignette)"/>
  <rect x="26" y="0" width="414" height="640" filter="url(#softGrain)"/>

  <!-- outer gold frame -->
  <rect x="52" y="36" width="362" height="568" fill="none" stroke="url(#goldLine)" stroke-width="2.2"/>
  <rect x="60" y="44" width="346" height="552" fill="none" stroke="url(#goldLine)" stroke-width="1" opacity="0.7"/>

  <!-- corner fleurons -->
  <g stroke="url(#goldLine)" stroke-width="1.3" fill="none" opacity="0.9">
    <circle cx="52" cy="36" r="3.5"/>
    <circle cx="414" cy="36" r="3.5"/>
    <circle cx="52" cy="604" r="3.5"/>
    <circle cx="414" cy="604" r="3.5"/>
  </g>

  <!-- Título grabado en la portada -->
  <text x="233" y="58" text-anchor="middle" fill="#F3ECDC"
    font-family="Georgia, 'Times New Roman', serif" font-size="24" font-weight="700"
    letter-spacing="0.1">
      <tspan x="233" dy="0">La Didaché — Enseñanza de</tspan>
      <tspan x="233" dy="29">los Doce Apóstoles</tspan>
  </text>
  <line x1="70" y1="105" x2="396" y2="105" stroke="url(#goldLine)" stroke-width="0.8" opacity="0.45"/>

  <!-- CENTRAL SIGNATURE: el camino que se bifurca — las Dos Vías, estructura central de la Didaché -->
  <g transform="translate(233,300)">
    <circle r="130" fill="none" stroke="url(#goldLine)" stroke-width="1.4" opacity="0.5"/>
    <circle r="119" fill="none" stroke="url(#goldLine)" stroke-width="0.7" opacity="0.35"/>
    <g stroke="url(#goldLine)" fill="none" stroke-linecap="round">
      <path d="M 0,80 L 0,10" stroke-width="3.6"/>
      <path d="M 0,10 L -48,-72" stroke-width="3.2"/>
      <path d="M 0,10 L 48,-72" stroke-width="3.2"/>
    </g>
    <g fill="url(#goldLine)" opacity="0.9">
      <circle cx="0" cy="52" r="2.6"/>
      <circle cx="-16" cy="-14" r="2.6"/>
      <circle cx="16" cy="-14" r="2.6"/>
      <circle cx="-34" cy="-46" r="2.6"/>
      <circle cx="34" cy="-46" r="2.6"/>
    </g>
  </g>

  <line x1="120" y1="500" x2="346" y2="500" stroke="url(#goldLine)" stroke-width="1" opacity="0.4"/>
</svg>
